<svg id="Capa_1" enable-background="new 0 0 512 512" height="512" viewBox="0 0 512 512" width="512" xmlns="http://www.w3.org/2000/svg"><g><path d="m343.507 102.687c0 4.139-3.345 7.483-7.512 7.483-4.139 0-7.483-3.345-7.483-7.483v-31.437c0-6.18-2.552-11.792-6.634-15.874-4.053-4.082-9.695-6.633-15.875-6.633h-100.006c-6.18 0-11.792 2.551-15.874 6.633s-6.605 9.694-6.605 15.874v31.437c0 4.139-3.373 7.483-7.512 7.483s-7.512-3.345-7.512-7.483v-31.437c0-10.318 4.224-19.701 11.026-26.504 6.774-6.775 16.158-10.999 26.476-10.999h100.007c10.318 0 19.702 4.224 26.505 10.999 6.774 6.803 10.998 16.185 10.998 26.504v31.437z" fill="#0c5e7f"/><g clip-rule="evenodd" fill-rule="evenodd"><path d="m163.505 102.687h25.002c4.394 0 7.994 3.6 7.994 7.993v22.99c0 4.394-3.6 7.993-7.994 7.993h-25.002c-4.394 0-7.994-3.6-7.994-7.993v-22.99c0-4.394 3.6-7.993 7.994-7.993z" fill="#407093"/><path d="m323.494 102.687h25.002c4.422 0 8.021 3.6 8.021 7.993v22.99c0 4.394-3.6 7.993-8.021 7.993h-25.002c-4.393 0-7.995-3.6-7.995-7.993v-22.99c0-4.394 3.602-7.993 7.995-7.993z" fill="#407093"/><path d="m512 186.564-255.149-20.012-256.851 20.012v253.194l269.352 19.502 242.648-19.502z" fill="#ce9875"/><path d="m486.998 186.564h25.002v253.193h-25.002z" fill="#c6865c"/><path d="m512 156.46v30.104c0 30.785-25.201 55.985-55.985 55.985h-400.002c-30.812.001-56.013-25.199-56.013-55.985v-30.104c0-15.788 12.927-28.716 28.716-28.716h454.597c15.789 0 28.687 12.928 28.687 28.716z" fill="#c6865c"/><path d="m512 156.46v30.104c0 30.785-25.201 55.985-55.985 55.985h-25.001c30.785 0 55.984-25.2 55.984-55.985v-30.104c0-15.788-12.897-28.716-28.687-28.716h25.002c15.789 0 28.687 12.928 28.687 28.716z" fill="#b16e3d"/><path d="m219.518 205.358h72.993c4.394 0 7.993 3.6 7.993 8.023v58.365c0 4.395-3.6 7.994-7.993 7.994h-72.993c-4.422 0-8.023-3.6-8.023-7.994v-58.365c.001-4.423 3.601-8.023 8.023-8.023z" fill="#407093"/><path d="m267.509 205.358h25.002c4.394 0 7.993 3.6 7.993 8.023v58.365c0 4.395-3.6 7.994-7.993 7.994h-25.002c4.393 0 7.994-3.6 7.994-7.994v-58.365c0-4.423-3.601-8.023-7.994-8.023z" fill="#0c5e7f"/><path d="m75.006 185.148h50.004v157.098c0 5.727-2.41 9.609-6.691 12.416l-11.651 7.682c-3.939 2.607-8.787 3.005-13.351 0l-11.622-7.682c-4.167-2.75-6.69-6.746-6.69-12.416v-157.098z" fill="#407093"/><path d="m100.008 185.148h25.003v157.098c0 5.727-2.41 9.609-6.691 12.416l-11.651 7.682c-3.939 2.607-8.787 3.005-13.351 0l-5.812-3.826 5.812-3.855c4.28-2.807 6.689-6.689 6.689-12.416v-157.099z" fill="#0c5e7f"/><path d="m387.019 185.148h49.975v157.098c0 5.727-2.381 9.609-6.661 12.416l-11.65 7.682c-3.969 2.607-8.787 3.005-13.352 0l-11.651-7.682c-4.139-2.75-6.661-6.746-6.661-12.416z" fill="#407093"/><path d="m412.021 185.148h24.973v157.098c0 5.727-2.381 9.609-6.661 12.416l-11.65 7.682c-3.969 2.607-8.787 3.005-13.352 0l-5.811-3.826 5.811-3.855c4.28-2.807 6.69-6.689 6.69-12.416z" fill="#0c5e7f"/><path d="m63.497 212.048h73.021c4.395 0 7.994 3.601 7.994 8.022v44.986c0 4.394-3.6 7.994-7.994 7.994h-73.021c-4.394 0-7.993-3.601-7.993-7.994v-44.986c-.001-4.422 3.599-8.022 7.993-8.022z" fill="#0c5e7f"/><path d="m111.517 212.048h25.001c4.395 0 7.994 3.601 7.994 8.022v44.986c0 4.394-3.6 7.994-7.994 7.994h-25.001c4.394 0 7.993-3.601 7.993-7.994v-44.986c0-4.422-3.599-8.022-7.993-8.022z" fill="#2b4d66"/><path d="m375.51 212.048h72.993c4.394 0 7.995 3.601 7.995 8.022v44.986c0 4.394-3.601 7.994-7.995 7.994h-72.993c-4.394 0-7.993-3.601-7.993-7.994v-44.986c0-4.422 3.6-8.022 7.993-8.022z" fill="#0c5e7f"/><path d="m423.501 212.048h25.002c4.394 0 7.995 3.601 7.995 8.022v44.986c0 4.394-3.601 7.994-7.995 7.994h-25.002c4.394 0 7.994-3.601 7.994-7.994v-44.986c0-4.422-3.6-8.022-7.994-8.022z" fill="#2b4d66"/></g><path d="m89.35 250.061c-4.167 0-7.512-3.373-7.512-7.512s3.345-7.483 7.512-7.483h21.317c4.139 0 7.512 3.345 7.512 7.483s-3.373 7.512-7.512 7.512z" fill="#2b4d66"/><path d="m63.015 192.659c-4.139 0-7.512-3.373-7.512-7.512s3.373-7.484 7.512-7.484h73.985c4.139 0 7.512 3.346 7.512 7.484 0 4.139-3.373 7.512-7.512 7.512z" fill="#b16e3d"/><path d="m244.35 250.061c-4.139 0-7.512-3.373-7.512-7.512s3.373-7.483 7.512-7.483h23.329c4.139 0 7.483 3.345 7.483 7.483s-3.345 7.512-7.483 7.512z" fill="#0c5e7f"/><path d="m375 192.659c-4.139 0-7.483-3.373-7.483-7.512s3.345-7.484 7.483-7.484h74.013c4.138 0 7.484 3.346 7.484 7.484 0 4.139-3.346 7.512-7.484 7.512z" fill="#b16e3d"/><path d="m401.335 250.061c-4.139 0-7.484-3.373-7.484-7.512s3.346-7.483 7.484-7.483h21.345c4.139 0 7.483 3.345 7.483 7.483s-3.345 7.512-7.483 7.512z" fill="#2b4d66"/><path clip-rule="evenodd" d="m0 449.566c0 15.76 12.927 28.686 28.716 28.686h454.597c15.789 0 28.687-12.927 28.687-28.686v-9.809h-512z" fill="#c6865c" fill-rule="evenodd"/><path clip-rule="evenodd" d="m458.311 478.253h25.002c15.789 0 28.687-12.927 28.687-28.686v-9.809h-25.002v9.809c0 15.759-12.898 28.686-28.687 28.686z" fill="#b16e3d" fill-rule="evenodd"/></g></svg>