<svg xmlns="http://www.w3.org/2000/svg" xmlns:xlink="http://www.w3.org/1999/xlink" width="32" height="32" viewBox="0 0 32 32"><defs><linearGradient id="a"><stop offset="0" stop-color="#000092"/><stop offset="1" stop-color="#ff00f3"/></linearGradient><linearGradient id="b" x1="1" x2="29" y1="16" y2="16" gradientUnits="userSpaceOnUse" xlink:href="#a"/></defs><path fill="url(#b)" fill-rule="evenodd" d="M 8.5 0 A 0.50005 0.50005 0 0 0 8 0.5 L 8 2 L 1.5 2 A 0.50005 0.50005 0 0 0 1 2.5 C 1 7.3031 2.6764972 10.906734 4.8964844 13.427734 C 7.0953166 15.924612 9.8067628 17.367819 11.984375 17.964844 C 12.182044 18.188044 12.383617 18.402994 12.595703 18.59375 C 13.046183 18.998925 13.538125 19.317217 14.054688 19.554688 A 0.50005 0.50005 0 0 0 14.128906 19.697266 C 14.128906 19.697266 14.272387 19.888938 14.408203 20.148438 C 14.54402 20.407837 14.630474 20.731778 14.617188 20.830078 C 14.588847 21.039778 14.338075 21.343959 14.035156 21.568359 C 13.732238 21.792759 13.441406 21.923828 13.441406 21.923828 A 0.50005 0.50005 0 0 0 13.269531 22.052734 C 13.245141 22.072734 13.196094 22.07375 13.177734 22.09375 C 13.084064 22.19765 13.040558 22.297225 13.007812 22.390625 C 12.942322 22.577325 12.923828 22.757706 12.923828 22.941406 C 12.923828 23.125206 12.942322 23.305388 13.007812 23.492188 C 13.024735 23.540243 13.067601 23.593681 13.095703 23.644531 C 13.08405 24.823145 12.946659 25.351251 12.697266 25.720703 C 12.441501 26.099593 11.953133 26.432814 11.203125 27.095703 A 0.50005 0.50005 0 0 0 11.177734 27.117188 C 11.173515 27.120931 11.172204 27.123188 11.167969 27.126953 A 0.50005 0.50005 0 0 0 11.080078 27.228516 A 0.50005 0.50005 0 0 0 11.066406 27.253906 A 0.50005 0.50005 0 0 0 11.054688 27.271484 A 0.50005 0.50005 0 0 0 11.048828 27.285156 A 0.50005 0.50005 0 0 0 11.005859 27.423828 A 0.50005 0.50005 0 0 0 11.005859 27.435547 A 0.50005 0.50005 0 0 0 11 27.5 L 11 29 L 10.648438 29 C 10.295571 29 10 29.298491 10 29.650391 L 10 31.351562 C 10 31.701663 10.299225 32 10.648438 32 L 21.351562 32 C 21.704026 32 22 31.703463 22 31.351562 L 22 29.650391 C 22 29.300491 21.700796 29 21.351562 29 L 21.027344 29 L 21.027344 27.5 A 0.50005 0.50005 0 0 0 20.736328 27.044922 C 20.026945 26.423678 19.550322 26.087479 19.302734 25.720703 C 19.053189 25.351027 18.915801 24.822724 18.904297 23.642578 C 18.932181 23.591587 18.975372 23.538309 18.992188 23.490234 C 19.057597 23.303134 19.074629 23.123753 19.074219 22.939453 C 19.073808 22.755153 19.056874 22.574219 18.990234 22.386719 C 18.956914 22.292719 18.911984 22.195097 18.818359 22.091797 C 18.762697 22.030439 18.674444 21.973533 18.574219 21.931641 C 18.574219 21.931641 18.263795 21.773903 17.949219 21.533203 C 17.634643 21.292503 17.391006 20.960644 17.378906 20.839844 C 17.367816 20.729344 17.460116 20.403331 17.595703 20.144531 C 17.731294 19.885631 17.873047 19.693359 17.873047 19.693359 A 0.50005 0.50005 0 0 0 17.945312 19.554688 C 18.462182 19.317188 18.953575 18.999141 19.404297 18.59375 C 19.616383 18.402994 19.818098 18.188044 20.015625 17.964844 C 22.193237 17.367819 24.904683 15.924612 27.103516 13.427734 C 29.323503 10.906734 31 7.3031 31 2.5 A 0.50005 0.50005 0 0 0 30.5 2 L 24 2 L 24 0.5 A 0.50005 0.50005 0 0 0 23.5 0 L 8.5 0 z M 9 1 L 23 1 L 23 2.9238281 L 9 2.9238281 L 9 1 z M 2.0429688 3 L 8 3 L 8 3.4238281 A 0.50005 0.50005 0 0 0 8.0019531 3.4726562 C 8.0021763 3.6503587 8.0090967 3.8235248 8.0117188 4 L 3.8007812 4 A 0.50005 0.50005 0 0 0 3.3007812 4.5 C 3.3007812 7.4015 4.6133236 9.9036469 6.1503906 11.810547 C 7.6690733 13.694639 9.3961907 15.003404 10.429688 15.607422 C 10.597653 15.938767 10.774486 16.252467 10.958984 16.552734 C 9.2305082 15.848988 7.278556 14.618899 5.6464844 12.765625 C 3.6530774 10.501925 2.1593782 7.3014 2.0429688 3 z M 24 3 L 29.957031 3 C 29.840622 7.3014 28.346923 10.501925 26.353516 12.765625 C 24.721444 14.618899 22.769492 15.848988 21.041016 16.552734 C 21.225109 16.252746 21.400668 15.938427 21.568359 15.607422 C 22.601714 15.003722 24.330335 13.695373 25.849609 11.810547 C 27.386676 9.9036469 28.699219 7.4015 28.699219 4.5 A 0.50005 0.50005 0 0 0 28.199219 4 L 23.988281 4 C 23.991153 3.8071773 24 3.618111 24 3.4238281 L 24 3 z M 9.0429688 3.9238281 L 22.957031 3.9238281 C 22.898871 8.0449281 22.20006 11.830675 20.980469 14.546875 C 20.344718 15.962775 19.579826 17.091009 18.736328 17.849609 C 17.892831 18.608309 16.989672 19 16 19 C 15.010331 19 14.107168 18.608309 13.263672 17.849609 C 12.420176 17.091009 11.653328 15.962775 11.017578 14.546875 C 9.7979893 11.830675 9.1011271 8.0449281 9.0429688 3.9238281 z M 4.40625 5 L 8.0332031 5 C 8.1686872 8.3099428 8.7311483 11.35708 9.6523438 13.837891 C 8.8097934 13.180902 7.8279222 12.297929 6.9296875 11.183594 C 5.5852423 9.5156938 4.5537076 7.3805 4.40625 5 z M 23.966797 5 L 27.59375 5 C 27.446292 7.3805 26.414759 9.5156937 25.070312 11.183594 C 24.170871 12.299427 23.187008 13.182668 22.34375 13.839844 C 23.265794 11.358593 23.830955 8.311028 23.966797 5 z M 15.384766 20.054688 C 15.778941 20.110688 16.219176 20.110688 16.613281 20.054688 C 16.496461 20.325288 16.349158 20.584653 16.384766 20.939453 C 16.451796 21.608653 16.94197 22.020272 17.341797 22.326172 C 17.70568 22.604572 17.994564 22.748497 18.054688 22.779297 C 18.063588 22.822297 18.074059 22.870306 18.074219 22.941406 C 18.074276 22.967406 18.070459 22.975 18.068359 23 L 13.931641 23 C 13.929541 22.975 13.923828 22.967406 13.923828 22.941406 C 13.923828 22.871406 13.934749 22.82415 13.943359 22.78125 C 14.020529 22.74525 14.279081 22.633547 14.630859 22.373047 C 15.031566 22.076247 15.516297 21.639244 15.607422 20.964844 C 15.656902 20.598644 15.50455 20.331488 15.384766 20.054688 z M 13.996094 24 L 18.003906 24 C 18.053296 24.965 18.132792 25.77775 18.472656 26.28125 C 18.659418 26.55795 18.989694 26.7827 19.236328 27 L 12.763672 27 C 13.010306 26.7827 13.340582 26.55795 13.527344 26.28125 C 13.867208 25.77775 13.946708 24.965 13.996094 24 z M 12 28 L 20.027344 28 L 20.027344 29 L 12 29 L 12 28 z M 11 30 L 21 30 L 21 31 L 11 31 L 11 30 z " color="#000" font-family="sans-serif" font-weight="400" overflow="visible" style="line-height:normal;text-indent:0;text-align:start;text-decoration-line:none;text-decoration-style:solid;text-decoration-color:#000;text-transform:none;block-progression:tb;isolation:auto;mix-blend-mode:normal"/></svg>