<svg id="Layer_2" data-name="Layer 2" xmlns="http://www.w3.org/2000/svg" viewBox="0 0 1279.96441 631.02804"><defs><style>.cls-1{fill:#333;}.cls-2{fill:#6398aa;}</style></defs><path class="cls-1" d="M1322.9822,601.92962l-211.80231,81.63575a4.15816,4.15816,0,0,0-2.55717,4.79641c3.56621,15.965,17.27814,82.97652,6.12337,125.21811-12.84111,48.65524-73.8122,76.28643-90.81389,83.08711a4.04584,4.04584,0,0,0-1.99044,5.79163l54.99977,94.79477L688.84692,849.67047a12.579,12.579,0,0,0-8.92934,0L293.20522,997.2534l93.86867-162.67711a3.70857,3.70857,0,0,0-4.21587-5.41843l-39.61531,11.15477a35.38464,35.38464,0,0,1-37.85986-15.46739l-33.74074-53.00933a19.37638,19.37638,0,0,1,.29027-21.23137l10.51893-15.578a7.43013,7.43013,0,0,0-.41467-8.88787l-20.76141-23.0836a22.17411,22.17411,0,0,1-3.77355-5.84692l-4.25733-9.75869a14.95192,14.95192,0,0,0-6.48276-4.9761L43.0178,601.92962l218.72739,2.32218s73.8122-120.60139,142.26127-149.26928c21.5493-8.88787,51.558,17.9278,53.70045,29.95338,4.82406,27.10594,6.5657,91.36679,10.74009,110.81506a6.19321,6.19321,0,0,0,7.78208,4.65819c7.83736-2.34983,12.01176-12.3435,25.95867-17.23667,14.66568-5.1558,34.98477,9.50988,46.26394-3.89795C567.18119,556.813,664.20139,393.03,679.59966,367.569c2.15631-3.56621,7.94795-.152,15.85442,11.6662,0,0,98.09835,161.5022,121.25106,187.4747A75.91947,75.91947,0,0,0,837.591,582.39842a20.17272,20.17272,0,0,0,16.9464.2488c26.26277-11.62473,72.56817-8.43173,90.97976,1.79693,5.01757,2.79214,11.43121.70495,16.39349-2.17014,21.3696-15.85441,38.5648-3.815,47.7706,9.71723a2.43781,2.43781,0,0,0,3.73207.35938c15.45357-15.495,30.63069-21.01021,53.24431-16.90493,11.87354,2.15632,16.75288,15.64709,21.77045,30.6998a2.18612,2.18612,0,0,0,2.14249,1.52047C1111.94012,607.25129,1322.9822,601.92962,1322.9822,601.92962Zm-216.94429,65.56017c22.351-6.34454,138.70889-52.18,138.70889-52.18s-133.66367-.77406-138.47391,0c-4.824.77406-11.97029,2.5157-11.97029,7.713,0,4.56143,2.5157,31.43239,6.37218,41.81309A4.42162,4.42162,0,0,0,1106.03791,667.48979Zm-179.43,208.45727c22.08837,3.35887,167.7638,20.77523,167.69469-103.64118-3.85648-79.07858-35.81412-190.08716-51.29533-176.6655-5.79163,5.01757,6.71774,23.22182,14.07131,45.66957,9.08139,27.65885,12.3435,58.483-9.05374,63.87382-36.3532,9.17815-45.90456-109.54339-70.20453-104.13879-8.83258,3.7459,16.2,43.58238,22.26806,92.749,6.08191,49.18049,14.37541,96.26,38.67539,94.32481,22.14366-1.75546,32.74552-37.12726,39.71207-39.90559a1.62475,1.62475,0,0,1,2.14249,1.327c2.4604,18.34248-17.16756,52.85728-31.05918,61.3443-27.96294,19.545-79.92175,3.17918-92.62464-1.27167a2.2164,2.2164,0,0,0-2.958,1.97662c-.35938,6.2616-1.74163,21.107-7.21535,33.82368-5.55665,12.8964-16.352,23.92677-20.872,28.19792A1.3543,1.3543,0,0,0,926.60791,875.94706Zm101.09784,82.25775c2.61245,1.06434,3.67679-1.5343,2.47423-3.23446,0,0-28.32232-51.88971-40.92845-56.78287-12.59231-4.87935-30.34041,6.69009-53.47929,1.54812-23.15271-5.142-27.258-25.9725-27.00919-30.09161.51144-12.3435,41.661-35.04006,25.19844-64.02586-8.51467-14.66569-26.31806-18.688-38.5648-33.174-13.68429-16.18616-21.9778-35.71736-24.20322-41.357a1.27721,1.27721,0,0,0-1.9628-.53907c-6.92507,5.37695-39.61531,29.40047-70.398,30.38187-30.16071.95376-57.83338-20.47113-65.93337-24.86669a3.80563,3.80563,0,0,0-3.59385.01382c-15.31534,7.94794-33.21549,30.8242-69.20931,30.47863-31.79177-.30409-31.08682-10.28394-48.10233-10.049a1.48617,1.48617,0,0,0-1.479,1.57577c1.28549,18.923-38.1916,36.4776-69.09873,27.72795-17.66517-5.00375-30.47863-19.80766-40.76258-31.6259-12.88258,17.58223-31.5015,37.32077-59.51973,56.67229a62.59943,62.59943,0,0,0-8.14145,6.64863c-31.65355,30.85184-81.84309,120.09-93.20519,140.33994,12.31586,3.27593,75.58149-24.67318,145.77219-53.34107C570.11156,869.97573,664.09081,833.15257,683,832.10206,717.61156,830.1669,966.23705,944.35466,1027.70575,958.20481ZM972.02868,729.60815c.48379-34.70833,6.55187-77.90367-20.05646-106.58538-25.00492-26.401-46.67862-24.17557-50.94977-21.65987-13.72576,8.29351,2.723,45.44841,15.84059,43.65149,15.95118-1.79693.24881-24.83905,7.58856-30.216,8.22439-5.65341,46.33305,46.55421,27.52062,68.68405-18.13513,21.32813-40.61054,5.84692-42.82214,3.96706-7.87883-6.71774-15.60561-35.95235-22.80714-57.43253-4.92081-14.638-9.80016-26.20748-9.80016-26.20748a5.2044,5.2044,0,0,0-6.52422-2.90272s-10.24248,2.18395-7.90648,11.33446c2.00427,7.90647,8.9017,15.14947,14.51364,37.01668,15.42592,60.16938,33.80986,119.57853,62.616,119.57853C949.263,768.83643,971.65547,756.74173,972.02868,729.60815ZM839.07,717.15406c38.316-41.14961,4.31262-97.60074-10.284-109.81984-9.53753-7.97558-47.45268-26.81566-69.12637-.44232-11.3621,13.82251-24.47967,56.465-20.49878,82.14718,2.73685,17.679,14.22336,28.68171,16.84964,30.47863C762.438,723.95474,800.754,758.28985,839.07,717.15406Zm-55.56649-150.458a2.57672,2.57672,0,0,0,1.85222-3.815c-12.31586-21.77045-82.25776-144.777-100.97344-162.81534-10.78156,6.42747-107.77411,176.95577-107.77411,176.95577a4.69644,4.69644,0,0,0,4.87935,7.03566c5.15579-1.00905,11.293-1.60341,16.36585-.37321,10.17337,2.44658,15.14947,13.629,20.05646,13.629,10.29777,0,30.35423-27.00918,56.32673-27.76942,17.96926-.53908,40.00234,10.76774,51.87588,16.9464a20.64686,20.64686,0,0,0,18.01073.48379s14.38923-12.13617,21.53547-15.60562C770.51031,569.0044,778.74853,567.45628,783.50347,566.69605ZM709.91243,713.657c24.687-30.11925,23.2771-81.44223.47-106.00483-16.822-18.10749-47.06564-17.13991-61.7175,2.7645-7.31211,9.92457-12.70289,19.26858-15.12183,23.02831-8.55613,13.242-30.28512,70.20452-6.17866,94.11746S683,747.23185,709.91243,713.657ZM563.38,658.14577c24.63171-11.38975,43.00183-47.31445,27.14741-50.16189-9.26108-2.32218-4.437,13.31108-16.00647,13.11756-9.45459-.19351-14.96977-12.24674-18.32864-12.15-5.5843.15205-23.52592,25.46106-32.59348,26.02778-9.06757.58055-12.537-28.15645-16.587-28.15645s-16.00647,20.05646-14.84538,22.76567c.52526,1.21639,9.67576,11.90119,16.2,30.46482,7.83736,22.33717,13.35255,54.33628,15.03889,72.13968,1.93515,26.23512,48.22674,37.0305,58.24806,23.91294,6.75921-9.82781,2.37747-48.752-2.69539-50.5351-7.713-2.69539-11.61091,7.10477-24.535,5.18344-15.56414-2.32218-34.68067-34.266-30.63068-61.10931,1.35461-2.28072,16.68377,5.44607,26.6498,9.05374A16.997,16.997,0,0,0,563.38,658.14577ZM467.2168,756.2303c21.97779-32.15116-.76024-91.56031-13.629-132.43347-5.59811-17.80339-5.15579-33.69928-7.87883-36.25644-7.16006-6.75921-16.42114,32.98051-23.74707,47.97793-21.7981,46.22247-49.761,59.11888-76.93609,59.11888s-40.07145-29.52488-42.64244-44.16292c-2.37747-21.03786,5.75016-48.97315,21.71516-75.44326,28.25321-46.88595,75.13917-89.14137,89.56987-80.26732,28.35,15.24623-20.637,143.69882-43.5962,137.13312-22.94537-6.55187,5.9575-55.23475,5.98515-75.22209.02764-25.86192-16.03411-13.08992-18.9092-10.79538-3.663,2.93037-26.15218,36.06292-29.63546,77.53045-2.184,26.15219,24.03735,28.35,29.05492,28.35,56.90727-3.49709,79.07858-95.27856,79.65912-127.29149.87082-47.86735-20.62318-43.63767-22.55833-43.38886-49.0008,6.16484-140.9896,141.36281-140.9896,172.6155,0,37.03051,24.76993,55.29,59.39532,57.28048,67.16358,3.87031,103.39237-68.55965,108.90756-78.18011,1.43754,22.64127,1.28549,37.51429-4.78259,50.68714-10.10426,21.9225-31.94382,35.10918-62.25659,47.3421-38.35746,15.495-78.26305,23.77471-79.79735,27.99058,2.05956,11.04418,40.37556,56.82434,40.37556,56.82434S437.77485,799.31506,467.2168,756.2303ZM257.43257,617.74257a1.69382,1.69382,0,0,0-1.57577-2.22542l-120.39406-2.86126a3.0407,3.0407,0,0,0-1.13344,5.88839l105.68691,39.60149a3.81969,3.81969,0,0,0,4.96228-2.39129Z" transform="translate(-43.0178 -366.22536)"/><path class="cls-2" d="M1244.7468,615.30981s-116.35789,45.83544-138.70889,52.18a4.42162,4.42162,0,0,1-5.36313-2.65393c-3.85648-10.3807-6.37218-37.25166-6.37218-41.81309,0-5.19726,7.14624-6.9389,11.97029-7.713C1111.08313,614.53575,1244.7468,615.30981,1244.7468,615.30981Z" transform="translate(-43.0178 -366.22536)"/><path class="cls-2" d="M1030.18,954.97035c1.20256,1.70016.13822,4.2988-2.47423,3.23446C966.23705,944.35466,717.61156,830.1669,683,832.10206c-18.90919,1.05051-112.88844,37.87367-197.44073,72.4023-70.1907,28.66789-133.45633,56.617-145.77219,53.34107,11.3621-20.25,61.55164-109.4881,93.20519-140.33994a62.59943,62.59943,0,0,1,8.14145-6.64863c28.01823-19.35152,46.63715-39.09006,59.51973-56.67229,10.284,11.81824,23.09741,26.62215,40.76258,31.6259,30.90713,8.74965,70.38422-8.80494,69.09873-27.72795a1.48617,1.48617,0,0,1,1.479-1.57577c17.01551-.235,16.31056,9.74487,48.10233,10.049,35.99382.34557,53.894-22.53069,69.20931-30.47863a3.80563,3.80563,0,0,1,3.59385-.01382c8.1,4.39556,35.77266,25.82045,65.93337,24.86669,30.78273-.9814,63.473-25.00492,70.398-30.38187a1.27721,1.27721,0,0,1,1.9628.53907c2.22542,5.63959,10.51893,25.17079,24.20322,41.357,12.24674,14.486,30.05013,18.50834,38.5648,33.174,16.46261,28.9858-24.687,51.68236-25.19844,64.02586-.2488,4.11911,3.85648,24.94963,27.00919,30.09161,23.13888,5.142,40.887-6.42747,53.47929-1.54812C1001.85766,903.08064,1030.18,954.97035,1030.18,954.97035Z" transform="translate(-43.0178 -366.22536)"/><path class="cls-1" d="M845.49743,651.37274c0,9.4546-26.20748,25.75134-26.20748,25.75134-6.538,4.61671-16.0894,3.71825-22.25424,1.70016-12.57849-4.09146-32.0544-14.56892-31.65355-31.51532.08293-3.85648-.15205-18.39776-.05529-28.972a.87929.87929,0,0,1,1.64488-.41467c4.57525,8.05852,13.007,27.35474,25.58546,26.60833,6.46894-.387,18.81244-3.17918,18.81244-10.11808,0-6.95272-27.78325-18.4254-16.49026-32.27556C802.39884,592.91735,845.49743,641.932,845.49743,651.37274Z" transform="translate(-43.0178 -366.22536)"/><path class="cls-2" d="M785.35569,562.881a2.57672,2.57672,0,0,1-1.85222,3.815c-4.75494.76023-12.99316,2.30835-17.84486,4.672-7.14624,3.46945-21.53547,15.60562-21.53547,15.60562a20.64686,20.64686,0,0,1-18.01073-.48379c-11.87354-6.17866-33.90662-17.48548-51.87588-16.9464-25.9725.76024-46.029,27.76942-56.32673,27.76942-4.907,0-9.88309-11.18241-20.05646-13.629-5.07286-1.2302-11.21006-.63584-16.36585.37321a4.69644,4.69644,0,0,1-4.87935-7.03566s96.99255-170.5283,107.77411-176.95577C703.09793,418.10407,773.03983,541.11058,785.35569,562.881Z" transform="translate(-43.0178 -366.22536)"/><path class="cls-1" d="M688.92986,608.205c14.04367-2.15631,29.27607,32.56584,28.502,42.601C715.22027,674.81572,683,693.61433,677.319,694.58191c-5.16962.01382-42.24159-22.18513-31.81942-58.24806,8.01706,8.43173,14.69333,13.06227,19.22711,15.55032a17.42274,17.42274,0,0,0,13.54606,1.4099c5.00375-1.52048,10.75391-4.68583,10.42217-11.16859-.58054-11.38975-12.82729-18.52216-11.14094-25.53017C679.2541,609.58729,682.17065,608.9791,688.92986,608.205Z" transform="translate(-43.0178 -366.22536)"/><path class="cls-2" d="M255.8568,615.51715a1.69382,1.69382,0,0,1,1.57577,2.22542l-12.45408,38.01191a3.81969,3.81969,0,0,1-4.96228,2.39129L134.3293,618.54428a3.0407,3.0407,0,0,1,1.13344-5.88839Z" transform="translate(-43.0178 -366.22536)"/></svg>