<svg xmlns="http://www.w3.org/2000/svg" width="32" height="32" viewBox="0 0 32 32"><g transform="translate(60.186 -1506.691) scale(.96044)"><path style="isolation:auto;mix-blend-mode:normal" fill="#fcd062" d="m -51.451284,1602.0769 -0.68599,-6.6169 -4.42898,0 1e-5,-5.5445 -1.93411,0 3.66301,-7.2783 c 0.80991,-5.3117 5.74901,-8.9378 11.07421,-8.1299 5.3252,0.8079 8.96025,5.7347 8.15034,11.0466 l -4.43613,9.6903 0.56294,6.8327" color="#000" overflow="visible"/><path style="isolation:auto;mix-blend-mode:normal" fill="#0c5286" d="m -49.5,1582.7713 1.017301,0 a 4.0909092,4.0909091 0 0 0 0.520196,1.2677 l -0.715393,0.7155 1.285506,1.2856 0.717402,-0.7174 a 4.0909092,4.0909091 0 0 0 1.266004,0.5238 l -1.9e-5,1.0157 1.81811,0 -10e-7,-1.0174 a 4.0909092,4.0909091 0 0 0 1.267807,-0.5203 l 0.715399,0.7156 1.285704,-1.2856 -0.717415,-0.7172 a 4.0909092,4.0909091 0 0 0 0.523818,-1.2661 l 1.015492,1e-4 -7e-6,-1.8182 -1.017301,0 a 4.0909092,4.0909091 0 0 0 -0.520201,-1.2677 l 0.715606,-0.7156 -1.285693,-1.2856 -0.717216,0.7175 a 4.0909092,4.0909091 0 0 0 -1.266001,-0.5239 l 2e-5,-1.0157 -1.818111,10e-5 -4e-6,1.0173 a 4.0909092,4.0909091 0 0 0 -1.267805,0.5203 l -0.715588,-0.7156 -1.285511,1.2856 0.717416,0.7173 a 4.0909092,4.0909091 0 0 0 -0.523821,1.266 l -1.015678,-10e-5 -1.6e-5,1.8183 z" color="#000" overflow="visible"/><path color="#000" style="line-height:normal;text-indent:0;text-align:start;text-decoration-line:none;text-decoration-style:solid;text-decoration-color:#000;text-transform:none;block-progression:tb;isolation:auto;mix-blend-mode:normal" fill="#fcd062" stroke="#406b95" stroke-linecap="round" stroke-linejoin="round" stroke-width="1.041" d="m -45.841855,1582.2217 c 0.19759,0.7374 0.963658,1.1797 1.701046,0.9821 0.737484,-0.1976 1.180176,-0.9638 0.982586,-1.7012 -0.197585,-0.7374 -0.964044,-1.1795 -1.701529,-0.9819 -0.737484,0.1976 -1.179688,0.9636 -0.982103,1.701 z" font-family="sans-serif" font-weight="400" overflow="visible"/><path style="isolation:auto;mix-blend-mode:normal" fill="#ee7581" d="m -37.115234,548.39648 -0.210938,0.78516 a 3.2727216,3.2727211 0 0 0 -1.08789,0.14063 l -0.404297,-0.70118 -1.259766,0.72657 0.40625,0.70312 a 3.2727216,3.2727211 0 0 0 -0.666016,0.86914 l -0.785156,-0.20898 -0.376953,1.40429 0.785156,0.21094 a 3.2727216,3.2727211 0 0 0 0.140625,1.08789 l -0.701172,0.4043 0.726563,1.25976 0.703125,-0.40624 a 3.2727216,3.2727211 0 0 0 0.869141,0.66601 l -0.208985,0.78516 1.404297,0.37695 0.210938,-0.78516 a 3.2727216,3.2727211 0 0 0 1.08789,-0.14062 l 0.404297,0.70117 1.259766,-0.72656 -0.40625,-0.70313 a 3.2727216,3.2727211 0 0 0 0.667968,-0.86914 l 0.783203,0.20899 0.376954,-1.4043 -0.785157,-0.21094 a 3.2727216,3.2727211 0 0 0 -0.140625,-1.08789 l 0.701172,-0.4043 -0.726562,-1.25976 -0.703125,0.40625 a 3.2727216,3.2727211 0 0 0 -0.869141,-0.66797 l 0.208984,-0.7832 -1.404296,-0.37696 z m -0.417969,3.44727 c 0.07858,-0.0109 0.160658,-0.006 0.242187,0.0156 0.326258,0.087 0.520898,0.42204 0.433594,0.74804 -0.08743,0.326 -0.422088,0.51904 -0.748047,0.43164 l -0.002,0 c -0.326178,-0.087 -0.518977,-0.42194 -0.43164,-0.74804 0.06561,-0.24465 0.270114,-0.41463 0.505859,-0.44727 z" color="#000" overflow="visible" transform="translate(0 1020.362)"/><path fill="none" stroke="#0c5286" stroke-linecap="round" stroke-linejoin="round" stroke-width="1.041" d="m -38.521752,1572.5227 c -0.158003,0.5899 0.195878,1.2028 0.785896,1.3608 0.589812,0.1581 1.203063,-0.1956 1.361259,-0.7856 0.158002,-0.5899 -0.196111,-1.2028 -0.786116,-1.3609 -0.589921,-0.1581 -1.202844,0.1957 -1.361039,0.7857 z" color="#000" style="line-height:normal;text-indent:0;text-align:start;text-decoration-line:none;text-decoration-style:solid;text-decoration-color:#000;text-transform:none;block-progression:tb;isolation:auto;mix-blend-mode:normal" font-family="sans-serif" font-weight="400" overflow="visible"/></g></svg>