<svg xmlns="http://www.w3.org/2000/svg" width="32" height="32" viewBox="0 0 32 32"><g transform="translate(148 -1436.362)"><g transform="translate(10 -5)"><path fill="#f0f4f7" d="m -154.99998,1443.3622 22.99996,0 c 0.55401,0 1.00002,0.446 1.00002,1 l 0,21 c 0,0.554 -0.44601,1 -1.00002,1 l -22.99996,0 c -0.55401,0 -1.00002,-0.446 -1.00002,-1 l 0,-21 c 0,-0.554 0.44601,-1 1.00002,-1 z"/><path fill="#0c5286" d="m -154.99998,1443.3622 22.99996,0 c 0.55401,0 1.00002,0.446 1.00002,1 l 0,4 -25,0 0,-4 c 0,-0.554 0.44601,-1 1.00002,-1 z"/><path fill="#ee7581" d="m -133,1445.8622 a 0.5,0.5 0 0 1 -0.5,0.5 0.5,0.5 0 0 1 -0.5,-0.5 0.5,0.5 0 0 1 0.5,-0.5 0.5,0.5 0 0 1 0.5,0.5 z"/><path fill="#8fb6d7" d="M-135 1445.8622a.5.5 0 0 1-.5.5.5.5 0 0 1-.5-.5.5.5 0 0 1 .5-.5.5.5 0 0 1 .5.5zM-137 1445.8622a.5.5 0 0 1-.5.5.5.5 0 0 1-.5-.5.5.5 0 0 1 .5-.5.5.5 0 0 1 .5.5z"/></g><path style="isolation:auto;mix-blend-mode:normal" fill="#f9b536" d="m -118,1458.7713 -1.2209,0 a 4.9090888,4.9090889 0 0 0 -0.6243,-1.5213 l 0.8587,-0.8586 -1.5427,-1.5427 -0.8608,0.8609 a 4.9090888,4.9090889 0 0 0 -1.5191,-0.6286 l 0,-1.2188 -2.1818,0 0,1.2209 a 4.9090888,4.9090889 0 0 0 -1.5213,0.6243 l -0.8587,-0.8587 -1.5427,1.5427 0.8609,0.8607 a 4.9090888,4.9090889 0 0 0 -0.6285,1.5192 l -1.2188,0 0,2.1818 1.2208,0 a 4.9090888,4.9090889 0 0 0 0.6243,1.5213 l -0.8587,0.8587 1.5427,1.5426 0.8608,-0.8608 a 4.9090888,4.9090889 0 0 0 1.5192,0.6286 l 0,1.2187 2.1818,0 0,-1.2208 a 4.9090888,4.9090889 0 0 0 1.5212,-0.6243 l 0.8587,0.8586 1.5427,-1.5426 -0.8609,-0.8608 a 4.9090888,4.9090889 0 0 0 0.6286,-1.5192 l 1.2188,0 0,-2.1818 z" color="#000" overflow="visible"/><path color="#000" style="line-height:normal;text-indent:0;text-align:start;text-decoration-line:none;text-decoration-style:solid;text-decoration-color:#000;text-transform:none;block-progression:tb;isolation:auto;mix-blend-mode:normal" fill="#f0f4f7" stroke="#0c5286" stroke-linecap="round" stroke-linejoin="round" d="m -122,1459.8622 c 0,-1.099 -0.9003,-1.9995 -1.9995,-1.9995 -1.099,0 -2.0005,0.9005 -2.0005,1.9995 0,1.0991 0.9015,1.9995 2.0005,1.9995 1.0992,0 1.9995,-0.9004 1.9995,-1.9995 z" font-family="sans-serif" font-weight="400" overflow="visible"/><path style="isolation:auto;mix-blend-mode:normal" fill="#f9b536" d="m -132,1459.9663 -0.8393,0 a 3.375012,3.3750124 0 0 0 -0.4292,-1.0458 l 0.5903,-0.5904 -1.0606,-1.0605 -0.5918,0.5918 a 3.375012,3.3750124 0 0 0 -1.0444,-0.4322 l 0,-0.8379 -1.5,0 0,0.8394 a 3.375012,3.3750124 0 0 0 -1.0459,0.4292 l -0.5903,-0.5903 -1.0606,1.0605 0.5918,0.5918 a 3.375012,3.3750124 0 0 0 -0.4321,1.0444 l -0.8379,0 0,1.5001 0.8393,0 a 3.375012,3.3750124 0 0 0 0.4292,1.0458 l -0.5903,0.5904 1.0606,1.0605 0.5917,-0.5918 a 3.375012,3.3750124 0 0 0 1.0445,0.4322 l 0,0.8379 1.5,0 0,-0.8394 a 3.375012,3.3750124 0 0 0 1.0459,-0.4292 l 0.5903,0.5903 1.0606,-1.0605 -0.5919,-0.5918 a 3.375012,3.3750124 0 0 0 0.4322,-1.0444 l 0.8379,0 0,-1.5001 z" color="#000" overflow="visible"/><path color="#000" style="line-height:normal;text-indent:0;text-align:start;text-decoration-line:none;text-decoration-style:solid;text-decoration-color:#000;text-transform:none;block-progression:tb;isolation:auto;mix-blend-mode:normal" fill="#f0f4f7" stroke="#0c5286" stroke-linecap="round" stroke-linejoin="round" d="m -134.9789,1460.7164 c 0,-0.6299 -0.516,-1.1459 -1.1459,-1.1459 -0.6298,0 -1.1463,0.516 -1.1463,1.1459 0,0.6298 0.5165,1.1458 1.1463,1.1458 0.6299,0 1.1459,-0.516 1.1459,-1.1458 z" font-family="sans-serif" font-weight="400" overflow="visible"/><g transform="translate(34.66)"><g transform="translate(0 .5)"><path fill="#f9b536" fill-rule="evenodd" d="m -170.20003,1454.8622 0.0145,-4.9498 5.70413,-3.7241 2.96985,2.9698 -3.72421,5.7041 z"/><path fill="#0c5286" fill-rule="evenodd" d="m -167.44531,431.24609 a 0.50005,0.50005 0 0 0 -0.34375,0.15039 l -2.40821,2.40821 -0.002,0.69531 0.7207,0 2.39649,-2.39648 a 0.50005,0.50005 0 0 0 -0.36328,-0.85743 z" transform="translate(0 1020.362)"/><circle cx="908.404" cy="1143.915" r="1" fill="none" stroke="#0c5286" stroke-linecap="round" stroke-linejoin="round" transform="rotate(45)"/><path fill="#406b95" fill-rule="evenodd" d="m -164.47711,1446.2006 2.96125,2.9649 1.70139,-1.1387 -3.53552,-3.5356 z"/></g><path fill="none" stroke="#0c5286" stroke-linecap="round" stroke-linejoin="round" d="m -170.03125,1454.8622 c -4.96875,0 -1.96875,-3 -5.96875,-3"/></g></g></svg>